HIERARCHY
ROOT Hips
{
 OFFSET 0.000000 0.000000 0.000000
 CHANNELS 6 Xposition Yposition Zposition Yrotation Xrotation Zrotation
 JOINT Chest
 {
  OFFSET 0.000000 11.395451 -0.039534
  CHANNELS 3 Yrotation Xrotation Zrotation
  JOINT Chest2
  {
   OFFSET 0.000000 9.398669 0.071813
   CHANNELS 3 Yrotation Xrotation Zrotation
   JOINT Chest3
   {
    OFFSET 0.000000 8.489801 0.000000
    CHANNELS 3 Yrotation Xrotation Zrotation
    JOINT Chest4
    {
     OFFSET 0.000000 8.489801 0.000000
     CHANNELS 3 Yrotation Xrotation Zrotation
     JOINT Neck
     {
      OFFSET 0.000000 12.404889 0.000000
      CHANNELS 3 Yrotation Xrotation Zrotation
      JOINT Head
      {
       OFFSET 0.000000 8.903270 0.092239
       CHANNELS 3 Yrotation Xrotation Zrotation
       End Site
       {
        OFFSET 0.000000 17.592497 0.007158
       }
      }
     }
     JOINT RightCollar
     {
      OFFSET -3.196775 6.966722 0.000000
      CHANNELS 3 Yrotation Xrotation Zrotation
      JOINT RightShoulder
      {
       OFFSET -15.955896 0.000000 0.000000
       CHANNELS 3 Yrotation Xrotation Zrotation
       JOINT RightElbow
       {
        OFFSET -24.792472 0.000000 0.000000
        CHANNELS 3 Yrotation Xrotation Zrotation
        JOINT RightWrist
        {
         OFFSET -20.900115 0.000000 0.025002
         CHANNELS 3 Yrotation Xrotation Zrotation
         End Site
         {
          OFFSET -16.056692 0.000000 0.000000
         }
        }
       }
      }
     }
     JOINT LeftCollar
     {
      OFFSET 3.196775 6.966722 0.000000
      CHANNELS 3 Yrotation Xrotation Zrotation
      JOINT LeftShoulder
      {
       OFFSET 15.955896 0.000000 0.000000
       CHANNELS 3 Yrotation Xrotation Zrotation
       JOINT LeftElbow
       {
        OFFSET 24.792472 0.000000 0.000000
        CHANNELS 3 Yrotation Xrotation Zrotation
        JOINT LeftWrist
        {
         OFFSET 20.900115 0.000000 0.025002
         CHANNELS 3 Yrotation Xrotation Zrotation
         End Site
         {
          OFFSET 16.056692 0.000000 0.000000
         }
        }
       }
      }
     }
    }
   }
  }
 }
 JOINT RightHip
 {
  OFFSET -9.568995 0.193718 0.019767
  CHANNELS 3 Yrotation Xrotation Zrotation
  JOINT RightKnee
  {
   OFFSET 0.000000 -56.649296 0.015402
   CHANNELS 3 Yrotation Xrotation Zrotation
   JOINT RightAnkle
   {
    OFFSET 0.000000 -41.365147 0.021264
    CHANNELS 3 Yrotation Xrotation Zrotation
    JOINT RightToe
    {
     OFFSET 0.000000 -7.465940 17.672538
     CHANNELS 3 Yrotation Xrotation Zrotation
     End Site
     {
      OFFSET 0.000000 -1.736315 7.837145
     }
    }
   }
  }
 }
 JOINT LeftHip
 {
  OFFSET 9.568995 0.193718 0.019767
  CHANNELS 3 Yrotation Xrotation Zrotation
  JOINT LeftKnee
  {
   OFFSET 0.000000 -56.649296 0.015402
   CHANNELS 3 Yrotation Xrotation Zrotation
   JOINT LeftAnkle
   {
    OFFSET 0.000000 -41.365147 0.021264
    CHANNELS 3 Yrotation Xrotation Zrotation
    JOINT LeftToe
    {
     OFFSET 0.000000 -7.465940 17.672538
     CHANNELS 3 Yrotation Xrotation Zrotation
     End Site
     {
      OFFSET 0.000000 -1.736315 7.837145
     }
    }
   }
  }
 }
}
MOTION
Frames: 14
Frame Time: 0.016667
103.674686 106.811636 195.444181 107.757026 -5.963210 -1.784503 -1.859579 4.942813 0.025673 -0.825962 2.196691 0.031223 -0.825962 2.196691 0.031223 -0.619508 1.647480 0.026384 2.823759 15.777225 -0.345165 5.390745 -6.818980 -1.678991 1.815216 3.685768 8.417661 -0.940277 -15.118587 77.144121 0.681241 9.705464 -7.202274 1.994792 8.945758 3.452160 4.125145 6.726554 -7.930259 -0.356910 -15.230223 -76.734811 9.178042 7.090907 8.941721 -0.764865 -1.046573 -7.599868 3.396222 10.605470 0.221135 0.414675 0.667473 -0.276648 8.148018 -4.762292 5.403444 -0.000000 -0.000000 0.000000 0.050064 10.283212 0.145813 1.137213 2.540261 0.374683 3.306928 -7.996363 -1.573466 0.000000 0.000000 -0.000000
103.762178 106.806169 195.470729 108.319844 -5.853554 -1.723068 -1.975146 4.896435 0.075241 -0.877805 2.175842 0.054266 -0.877802 2.175833 0.054266 -0.658464 1.631796 0.043821 2.797079 15.835202 -0.396401 5.357585 -6.709975 -1.761973 1.817001 3.682858 8.391551 -1.222790 -14.918171 77.228460 0.447483 9.829915 -7.212851 1.891793 9.055128 3.516806 4.124989 6.665608 -7.905065 -0.694530 -15.295219 -76.822749 8.515136 7.247071 8.651104 -0.834822 -1.068768 -7.600204 3.218974 10.726416 0.172068 0.154133 0.425359 -0.220399 8.032901 -4.771434 5.361510 0.000000 -0.000000 0.000000 -0.050380 10.165434 0.150687 0.730154 2.547934 0.379009 3.214730 -7.938288 -1.633981 0.000000 -0.000000 0.000000
103.849670 106.800703 195.497277 108.882672 -5.744503 -1.660564 -2.090590 4.849430 0.124642 -0.929594 2.154715 0.077209 -0.929592 2.154710 0.077209 -0.697383 1.615916 0.061179 2.770285 15.893402 -0.447338 5.324097 -6.600557 -1.844333 1.818796 3.680106 8.365425 -1.505393 -14.718294 77.313112 0.213138 9.953480 -7.224144 1.788594 9.164518 3.580992 4.124920 6.604512 -7.880224 -1.031515 -15.361095 -76.911468 7.851052 7.398471 8.358040 -0.904842 -1.090790 -7.600159 3.041489 10.847317 0.124067 -0.106431 0.183095 -0.163801 7.917837 -4.780666 5.319482 -0.000000 -0.000000 0.000000 -0.150722 10.047411 0.154758 0.323080 2.555317 0.383168 3.122457 -7.880305 -1.694542 0.000000 -0.000000 0.000000
103.925486 106.795966 195.524825 109.416711 -5.632873 -1.596299 -2.200972 4.803782 0.174497 -0.979133 2.134171 0.100285 -0.979133 2.134171 0.100285 -0.734615 1.600473 0.078626 2.742359 15.941855 -0.503623 5.290781 -6.509013 -1.936682 1.826246 3.678430 8.338292 -1.759311 -14.520736 77.392058 0.006374 9.897267 -7.216392 1.663128 9.232387 3.695502 4.120182 6.562492 -7.856012 -1.419200 -15.454374 -77.013764 7.118798 7.507458 8.041441 -0.999222 -1.135796 -7.573374 2.920428 10.933939 0.096577 -0.344024 -0.013176 -0.132140 7.746688 -4.800630 5.276079 0.000000 0.000000 0.000000 -0.266227 9.922399 0.148354 -0.052944 2.565579 0.390049 3.043216 -7.827760 -1.751533 -0.000000 -0.000000 0.000000
103.983327 106.791876 195.554121 109.915107 -5.512883 -1.527638 -2.304574 4.758121 0.225093 -1.025655 2.113587 0.123600 -1.025655 2.113588 0.123600 -0.769582 1.584989 0.096238 2.713190 15.977519 -0.571275 5.259701 -6.440694 -2.050318 1.844689 3.673783 8.307612 -1.975954 -14.312992 77.463824 -0.148706 9.516629 -7.164606 1.490769 9.223228 3.905941 4.109194 6.550512 -7.834107 -1.886855 -15.597408 -77.138131 6.286551 7.535255 7.687314 -1.119641 -1.205973 -7.511337 2.896522 10.964139 0.101063 -0.540671 -0.135915 -0.141732 7.467654 -4.841413 5.227530 0.000000 0.000000 0.000000 -0.404719 9.782583 0.124484 -0.394574 2.580242 0.402302 2.987049 -7.783457 -1.803944 0.000000 -0.000000 0.000000
104.029492 106.788516 195.584416 110.384756 -5.390269 -1.457279 -2.403096 4.713914 0.276232 -1.069919 2.093624 0.147091 -1.069918 2.093623 0.147092 -0.802853 1.569965 0.113974 2.682904 16.003481 -0.644468 5.228875 -6.390144 -2.174304 1.868777 3.670290 8.275911 -2.164050 -14.107479 77.530123 -0.273564 8.957100 -7.089157 1.294490 9.173808 4.166028 4.093441 6.557606 -7.812440 -2.405120 -15.769029 -77.274754 5.386345 7.518509 7.315836 -1.264858 -1.296654 -7.420690 2.929301 10.959965 0.124905 -0.714274 -0.212443 -0.176763 7.132506 -4.892917 5.177822 0.000000 0.000000 0.000000 -0.558252 9.635908 0.090425 -0.705163 2.597932 0.417259 2.943948 -7.744549 -1.852763 0.000000 -0.000000 -0.000000
104.071198 106.786864 195.614469 110.817466 -5.278974 -1.392763 -2.496756 4.677486 0.327882 -1.112025 2.077100 0.170784 -1.112025 2.077100 0.170784 -0.834508 1.557521 0.131856 2.650862 16.018867 -0.711191 5.192831 -6.359622 -2.286104 1.888057 3.681036 8.249910 -2.320772 -13.943290 77.589645 -0.408159 8.474813 -7.038618 1.125442 9.150613 4.389508 4.072772 6.570065 -7.785582 -2.937555 -15.930655 -77.408897 4.446268 7.532817 6.956665 -1.454846 -1.419552 -7.296265 2.953711 10.953498 0.151559 -0.895575 -0.279101 -0.214450 6.840463 -4.935537 5.137189 0.000000 0.000000 0.000000 -0.718479 9.499276 0.058110 -0.963694 2.617520 0.429883 2.896949 -7.707900 -1.897363 0.000000 -0.000000 0.000000
104.111686 106.787884 195.645754 111.216862 -5.183146 -1.338803 -2.586842 4.653076 0.381283 -1.152560 2.065889 0.195271 -1.152561 2.065890 0.195270 -0.864988 1.549056 0.150335 2.614100 16.016854 -0.767278 5.144842 -6.362145 -2.377239 1.897224 3.717473 8.233226 -2.441165 -13.840715 77.641180 -0.567971 8.121848 -7.028423 1.002482 9.180832 4.556187 4.044553 6.587416 -7.750055 -3.490776 -16.067643 -77.537622 3.452922 7.606245 6.618409 -1.715533 -1.590785 -7.108890 2.951189 10.953678 0.182730 -1.117816 -0.344701 -0.252265 6.632852 -4.962314 5.116213 0.000000 0.000000 0.000000 -0.899302 9.378146 0.032950 -1.152056 2.637092 0.437822 2.840081 -7.670678 -1.938486 0.000000 -0.000000 -0.000000
104.147714 106.790613 195.676796 111.579284 -5.098359 -1.291146 -2.672122 4.636592 0.435327 -1.190963 2.058179 0.220031 -1.190963 2.058178 0.220031 -0.893868 1.543211 0.169018 2.575686 16.004056 -0.817013 5.091901 -6.385088 -2.456480 1.901443 3.767962 8.222433 -2.530019 -13.779254 77.685665 -0.738268 7.845449 -7.045007 0.908103 9.236555 4.686739 4.011421 6.610069 -7.709282 -4.058740 -16.195226 -77.663046 2.418388 7.711496 6.293113 -2.020883 -1.789771 -6.882543 2.940312 10.951479 0.216813 -1.347765 -0.400607 -0.292426 6.468318 -4.980169 5.104242 0.000000 0.000000 0.000000 -1.086892 9.266982 0.009967 -1.288354 2.658636 0.443548 2.779324 -7.635705 -1.975379 0.000000 0.000000 -0.000000
104.176782 106.793140 195.701940 111.885604 -5.025638 -1.244096 -2.749071 4.621933 0.486437 -1.225635 2.051289 0.243411 -1.225635 2.051289 0.243411 -0.919945 1.537986 0.186655 2.543982 15.999697 -0.860979 5.049014 -6.392366 -2.527020 1.906002 3.810884 8.213640 -2.599080 -13.736782 77.724807 -0.915283 7.743902 -7.096603 0.841460 9.300506 4.757601 3.981179 6.625682 -7.668373 -4.585931 -16.318774 -77.779123 1.408612 7.842121 5.980997 -2.312705 -1.976967 -6.693837 2.911671 10.952291 0.232957 -1.516396 -0.457134 -0.319443 6.322079 -4.990392 5.079427 0.000000 -0.000000 0.000000 -1.231399 9.166278 -0.014667 -1.405894 2.686840 0.449287 2.715637 -7.608325 -2.005173 0.000000 -0.000000 -0.000000
104.196688 106.795215 195.718548 112.128075 -4.966087 -1.195205 -2.815965 4.608163 0.533290 -1.255798 2.044816 0.264802 -1.255798 2.044817 0.264802 -0.942635 1.533078 0.202785 2.520160 16.009770 -0.898671 5.017929 -6.372829 -2.588040 1.913114 3.837911 8.205292 -2.651639 -13.708292 77.762370 -1.113798 7.902332 -7.205575 0.807524 9.369368 4.744288 3.958292 6.628644 -7.629410 -5.056374 -16.439989 -77.888282 0.430498 8.014887 5.684877 -2.585020 -2.153915 -6.568292 2.850003 10.958376 0.218876 -1.583404 -0.518211 -0.323945 6.182243 -4.990583 5.028746 0.000000 0.000000 0.000000 -1.302379 9.074870 -0.041576 -1.517311 2.726941 0.455467 2.639739 -7.591175 -2.024809 0.000000 -0.000000 -0.000000
104.209632 106.797088 195.729257 112.314448 -4.918456 -1.147299 -2.874572 4.596434 0.577190 -1.282251 2.039261 0.284807 -1.282251 2.039261 0.284806 -0.962538 1.528857 0.217863 2.502982 16.028231 -0.930565 4.996752 -6.337728 -2.640270 1.920657 3.857351 8.198802 -2.684344 -13.698630 77.794345 -1.322358 8.235019 -7.353183 0.801096 9.445673 4.671627 3.938320 6.624684 -7.590397 -5.485937 -16.556523 -77.988631 -0.523234 8.213830 5.398985 -2.843858 -2.323536 -6.481281 2.770502 10.967676 0.186920 -1.589116 -0.579825 -0.315581 6.060710 -4.983158 4.965139 0.000000 -0.000000 -0.000000 -1.330353 8.994158 -0.070253 -1.609963 2.773749 0.461722 2.560933 -7.581598 -2.037312 0.000000 -0.000000 0.000000
104.219721 106.797612 195.736319 112.448847 -4.880271 -1.102576 -2.926604 4.583794 0.618443 -1.305755 2.033318 0.303563 -1.305755 2.033318 0.303563 -0.980224 1.524349 0.231996 2.497120 16.056317 -0.958685 4.994851 -6.284437 -2.689109 1.927485 3.872577 8.194639 -2.699084 -13.700482 77.810832 -1.496760 8.584760 -7.485270 0.806606 9.521059 4.590399 3.915700 6.618522 -7.550373 -5.866653 -16.666972 -78.068249 -1.407345 8.382969 5.110404 -3.049066 -2.452960 -6.439698 2.709432 10.979245 0.153197 -1.585436 -0.640271 -0.307474 5.968403 -4.976635 4.905705 -0.000000 0.000000 0.000000 -1.356914 8.928493 -0.102853 -1.679240 2.816298 0.469023 2.508058 -7.576999 -2.048946 0.000000 0.000000 0.000000
104.227099 106.796251 195.739482 112.530521 -4.848866 -1.061550 -2.972012 4.567408 0.657383 -1.326289 2.025726 0.321201 -1.326289 2.025726 0.321201 -0.995679 1.518607 0.245275 2.505381 16.099751 -0.982768 5.017093 -6.202206 -2.734783 1.934550 3.881636 8.192766 -2.699471 -13.709443 77.805672 -1.624914 8.931687 -7.584545 0.823770 9.599537 4.510646 3.887052 6.608937 -7.510247 -6.191253 -16.769816 -78.119104 -2.214267 8.488266 4.800485 -3.179180 -2.526323 -6.467972 2.681806 10.989939 0.120804 -1.593509 -0.697768 -0.301459 5.913467 -4.974349 4.857175 0.000000 0.000000 0.000000 -1.391635 8.877397 -0.140619 -1.727246 2.850582 0.478218 2.491804 -7.576328 -2.061874 0.000000 0.000000 0.000000
